<?xml version="1.0" standalone="yes"?>
<svg width="192" height="192">
<path style="fill:#000000; stroke:none;" d="M0 0L0 40C9.46842 34.0441 20.2292 36.1688 27.9059 26.9961C33.5088 20.3013 30.1859 6.27838 38.0548 2.18364C45.153 -1.5101 46.4679 7.8494 52.1042 8.46913C59.304 9.26077 70.5918 2.52824 78 1L54 0L0 0z"/>
<path style="fill:#ff0000; stroke:none;" d="M78 0L79 1L78 0z"/>
<path style="fill:#ffcc4d; stroke:none;" d="M59 28C66.7838 26.8556 76.175 22.9522 83.9992 23.4877C88.7668 23.8139 92.1085 28.5583 89.9676 33C86.6194 39.9464 75.2358 44.2542 73.8781 52C72.4801 59.9754 94.5922 78.1248 80.956 83.6914C72.3533 87.2032 61.7948 73.1345 53 73.6582C43.7006 74.2119 36.2127 97.2073 26.1088 91.9537C15.3449 86.357 29.6728 68.6715 24.8827 60.4954C22.9314 57.1647 12.0323 51.8414 8.65201 54.6466C-1.70577 63.2423 0 88.1865 0 100C0 140.362 27.624 176.228 66 188.406C79.811 192.788 94.64 192.613 109 191.961C158.138 189.73 192 141.568 192 96C192 84.9647 192.669 62.7258 183.348 54.6188C179.806 51.5378 169.057 56.6493 167.117 60.2747C162.64 68.644 176.26 86.3347 165.891 91.8056C155.522 97.2765 148.36 74.4499 139 73.5309C130.183 72.6652 119.465 86.9925 111.019 83.6883C97.3116 78.3252 119.513 59.9343 118.122 52C116.764 44.2542 105.381 39.9464 102.032 33C100.081 28.9524 102.61 24.5188 107.005 23.814C114.507 22.611 125.334 27.026 133 28C134.764 23.7865 142.206 14.9438 139.867 10.3904C137.621 6.01732 127.4 3.86365 123 2.80478C106.264 -1.22308 87.792 -1.58502 71 2.34953C66.1326 3.49001 54.6398 5.50903 52.1327 10.3904C49.7941 14.9438 57.2365 23.7865 59 28z"/>
<path style="fill:#ff0000; stroke:none;" d="M113 0L114 1L113 0z"/>
<path style="fill:#000000; stroke:none;" d="M114 0L114 1C121.408 2.52824 132.696 9.26077 139.896 8.46913C145.532 7.8494 146.847 -1.5101 153.945 2.18364C161.814 6.27838 158.491 20.3013 164.094 26.9961C171.771 36.1688 182.532 34.0441 192 40L192 0L114 0z"/>
<path style="fill:#e95f28; stroke:none;" d="M31 33C22.8449 33.3285 12.6456 33.598 5.01929 36.7384C-0.357293 38.9524 -1.25399 45.4585 2.72377 49.5008C8.19738 55.0632 19.4469 53.9286 24.2269 60.4954C29.0393 67.1069 14.1722 93.4529 29 92.8079C39.2679 92.3612 42.8297 77.2002 52 74.3681C61.2369 71.5154 75.059 91.0171 83.5664 82.5656C92.1376 74.0506 74.2457 61.6519 74.4182 53C74.5638 45.697 86.8423 40.2832 89.9722 34C92.4484 29.0292 89.7235 23.4571 83.9992 23.2377C76.2881 22.9421 66.5511 26.2739 59 28L52 9C49.3236 6.73293 47.3376 2.87598 43.9568 1.60725C30.0846 -3.59848 31 25.4039 31 33M140 9L133 28C125.387 26.5655 114.609 22.6788 107.005 23.4522C101.692 23.9924 99.8218 29.5715 102.028 34C105.158 40.2832 117.436 45.697 117.582 53C117.75 61.4376 99.7948 74.3577 108.318 82.5656C116.916 90.8461 130.642 70.989 140 74.2407C147.572 76.872 157.747 99.5892 167.566 91.2577C175.824 84.2516 162.151 68.7342 167.773 60.2747C173.041 52.3497 191.138 55.506 191.797 44C192.554 30.7805 169.772 37.035 163.318 32.8171C160.69 31.0993 161.101 27.7223 160.961 25C160.614 18.2028 158.774 -6.51302 146.209 2.60263C143.831 4.32764 142.254 7.09038 140 9z"/>
<path style="fill:#ffcc4d; stroke:none;" d="M30 24L22 34L31 33L30 24M161 24C161.006 31.5333 162.105 33.9285 170 34L161 24z"/>
<path style="fill:#ffff00; stroke:none;" d="M4 36L5 37L4 36M187 36L188 37L187 36z"/>
<path style="fill:#000000; stroke:none;" d="M0 47L0 78L1 78L9 53L0 47M191 47L183 53L191 78L192 78L191 47z"/>
<path style="fill:#ff0000; stroke:none;" d="M0 78L1 79L0 78M191 78L192 79L191 78z"/>
<path style="fill:#ae8424; stroke:none;" d="M43 106L43 107L49 107L43 106z"/>
<path style="fill:#b28926; stroke:none;" d="M143 106L143 107L149 107L143 106z"/>
<path style="fill:#664500; stroke:none;" d="M42.1088 107.742C37.6026 109.68 37.9862 114.887 38.0008 119C38.0418 130.611 44.7265 141.15 53.0039 148.91C72.0111 166.73 100.93 169.365 124 158.691C137.66 152.37 149.292 140.789 153.366 126C154.795 120.81 155.416 111.026 149.941 108.028C142.754 104.092 132.443 109.455 125 109.975C108.722 111.114 93.4033 113.922 77 111.572C67.8756 110.265 50.7077 104.045 42.1088 107.742z"/>
<path style="fill:#ad8424; stroke:none;" d="M60 109L60 110L65 110L60 109z"/>
<path style="fill:#ad8323; stroke:none;" d="M125 109L125 110L130 110L125 109z"/>
<path style="fill:#cda034; stroke:none;" d="M76 111L76 112L86 112L76 111z"/>
<path style="fill:#cc9f34; stroke:none;" d="M103 111L103 112L115 112L103 111z"/>
<path style="fill:#b18725; stroke:none;" d="M37 112L37 122L38 122L37 112z"/>
<path style="fill:#8d6713; stroke:none;" d="M87 112L87 113L100 113L87 112z"/>
<path style="fill:#b68c28; stroke:none;" d="M154 112L154 122L155 122L154 112z"/>
<path style="fill:#ff0000; stroke:none;" d="M0 113L1 114L0 113M191 113L192 114L191 113z"/>
<path style="fill:#000000; stroke:none;" d="M0 114L0 192L78 192L78 191C49.2993 185.079 24.9708 167.821 10.6659 142C5.82478 133.262 5.04464 122.259 0 114M191 114C182.886 153.334 153.334 182.886 114 191L114 192L192 192L192 138L191 114z"/>
<path style="fill:#886e38; stroke:none;" d="M141 117L141 118L144 119L141 117z"/>
<path style="fill:#ffffff; stroke:none;" d="M49 118C60.1014 141.803 101.18 141.682 122 134.139C130.29 131.135 139.138 126.276 143 118C111.274 123.978 80.7051 124.54 49 118z"/>
<path style="fill:#b3a280; stroke:none;" d="M51 118L51 119L54 119L51 118z"/>
<path style="fill:#c5b89d; stroke:none;" d="M137 118L137 119L141 119L137 118z"/>
<path style="fill:#c7baa1; stroke:none;" d="M55.6667 119.333L56.3333 119.667L55.6667 119.333z"/>
<path style="fill:#917948; stroke:none;" d="M132 119L132 120L135 120L132 119z"/>
<path style="fill:#d7cebc; stroke:none;" d="M60 120L60 121L63 121L60 120z"/>
<path style="fill:#d7cfbd; stroke:none;" d="M127 120L127 121L132 121L127 120z"/>
<path style="fill:#b7a787; stroke:none;" d="M67 121L67 122L74 122L67 121z"/>
<path style="fill:#b7a887; stroke:none;" d="M117 121L117 122L123 122L117 121z"/>
<path style="fill:#ded6c7; stroke:none;" d="M77 122L77 123L85 123L77 122z"/>
<path style="fill:#9f8b5f; stroke:none;" d="M85 122L85 123L106 123L85 122z"/>
<path style="fill:#d7cfbd; stroke:none;" d="M106 122L106 123L113 123L106 122z"/>
<path style="fill:#b7a887; stroke:none;" d="M134 127L135 128L134 127z"/>
<path style="fill:#d8cfbd; stroke:none;" d="M67.6667 133.333L68.3333 133.667L67.6667 133.333z"/>
<path style="fill:#a49269; stroke:none;" d="M123.667 133.333L124.333 133.667L123.667 133.333z"/>
<path style="fill:#c8bda4; stroke:none;" d="M72.6667 135.333L73.3333 135.667L72.6667 135.333z"/>
<path style="fill:#c2b498; stroke:none;" d="M117.667 135.333L118.333 135.667L117.667 135.333z"/>
<path style="fill:#ab9873; stroke:none;" d="M75.6667 136.333L76.3333 136.667L75.6667 136.333z"/>
<path style="fill:#ae9c77; stroke:none;" d="M80 137L80 138L83 138L80 137z"/>
<path style="fill:#a7956e; stroke:none;" d="M109 137L109 138L112 138L109 137z"/>
<path style="fill:#d2cab5; stroke:none;" d="M88 138L88 139L101 139L88 138z"/>
<path style="fill:#866c35; stroke:none;" d="M101 138L101 139L106 139L101 138z"/>
<path style="fill:#ff0000; stroke:none;" d="M9 140L10 141L9 140M182 140L183 141L182 140M177 148L178 149L177 148M170 158L171 159L170 158z"/>
<path style="fill:#b48a27; stroke:none;" d="M79 163L79 164L82 164L79 163z"/>
<path style="fill:#c4992f; stroke:none;" d="M82 164L82 165L87 165L82 164z"/>
<path style="fill:#ff0000; stroke:none;" d="M33 170L34 171L33 170M158 170L159 171L158 170M43 177L44 178L43 177M148 177L149 178L148 177M51 182L52 183L51 182M140 182L141 183L140 182M78 191L79 192L78 191M113 191L114 192L113 191z"/>
</svg>
